<?xml version="1.0" encoding="utf-8"?>
<!-- Generator: Adobe Illustrator 24.1.3, SVG Export Plug-In . SVG Version: 6.00 Build 0)  -->
<svg version="1.1" id="Layer_1" xmlns="http://www.w3.org/2000/svg" xmlns:xlink="http://www.w3.org/1999/xlink" x="0px" y="0px"
	 viewBox="0 0 512 512" style="enable-background:new 0 0 512 512;" xml:space="preserve">
<style type="text/css">
	.st0{fill:#FFFFFF;}
</style>
<path class="st0" d="M131.6,323.9l20.2,6.5c39.1,12.5,40.3,64.2,1,77.9c0,9.8-7.9,16-16.5,16c-8.5,0-16.5-6.1-16.5-16
	c-16.9-5.9-28.9-21-28.9-38.8c0-8.5,7.4-15.4,16.5-15.4s16.5,6.9,16.5,15.4c0,5.9,5.1,10.6,11.4,10.6h2c12.9,0,15.8-16.8,3.7-20.7
	l-20.2-6.5c-39.1-12.5-40.3-64.2-1-77.9c0-9.8,7.9-16,16.5-16c8.5,0,16.5,6.1,16.5,16c16.9,5.9,28.9,21,28.9,38.8
	c0,8.5-7.4,15.4-16.5,15.4c-9.1,0-16.5-6.9-16.5-15.4c0-5.9-5.1-10.6-11.4-10.6h-2C122.5,303.2,119.5,320,131.6,323.9L131.6,323.9z
	 M272.6,335.5c0,75.1-61.1,136.2-136.2,136.2S0.1,410.6,0.1,335.5s61.1-136.2,136.2-136.2S272.6,260.4,272.6,335.5z M239.5,335.5
	c0-56.9-46.3-103.2-103.2-103.2S33.1,278.6,33.1,335.5s46.3,103.2,103.2,103.2S239.5,392.4,239.5,335.5z M495.5,438.7h-11.4V166.2
	c0-9.1-7.4-16.5-16.5-16.5c-9.1,0-16.5,7.4-16.5,16.5v272.5h-83.6V232.3c0-9.1-7.4-16.5-16.5-16.5c-9.1,0-16.5,7.4-16.5,16.5v206.4
	h-70.2c-9.1,0-16.5,7.4-16.5,16.5s7.4,16.5,16.5,16.5h231.2c9.1,0,16.5-7.4,16.5-16.5S504.6,438.7,495.5,438.7z M254.3,218.2l59-59
	l26,26c6.4,6.4,16.9,6.4,23.4,0l88.4-88.4v7.6c0,9.1,7.4,16.5,16.5,16.5c9.1,0,16.5-7.4,16.5-16.5c0-52.4,0.1-48-0.2-49.8
	c-0.8-5.6-4.5-10.6-10-12.9c-4.1-1.7-2.8-1.3-53.8-1.3c-9.1,0-16.5,7.4-16.5,16.5s7.4,16.5,16.5,16.5h7.6L351,150.1l-26-26
	c-6.4-6.4-16.9-6.4-23.4,0L231,194.8c-6.4,6.4-6.4,16.9,0,23.4C237.4,224.6,247.9,224.6,254.3,218.2L254.3,218.2z"/>
</svg>
