<?xml version="1.0" encoding="utf-8"?>
<!-- Generator: Adobe Illustrator 24.1.3, SVG Export Plug-In . SVG Version: 6.00 Build 0)  -->
<svg version="1.1" id="Capa_1" xmlns="http://www.w3.org/2000/svg" xmlns:xlink="http://www.w3.org/1999/xlink" x="0px" y="0px"
	 viewBox="0 0 512 512" style="enable-background:new 0 0 512 512;" xml:space="preserve">
<style type="text/css">
	.st0{fill:#061F3E;}
</style>
<g>
	<g>
		<path class="st0" d="M416.2,83.8l-5.4-38.4c-0.3-1.9-1.3-3.7-2.9-4.8c-1.6-1.2-3.5-1.7-5.5-1.4l-42.3,6.5c-4,0.6-6.7,4.3-6.1,8.3
			c0.6,4,4.3,6.7,8.3,6.1l24.6-3.8c-33,40.7-68.4,75.5-105.5,103.3c-32.3,24.2-66,43.3-100,56.7c-57.9,22.8-97.5,21.3-97.9,21.3
			c-4-0.2-7.4,2.9-7.6,6.9c-0.2,4,2.9,7.4,6.9,7.6c0.2,0,1.2,0.1,2.9,0.1c10.5,0,47.9-1.6,100.1-22c35.4-13.8,70.3-33.5,103.7-58.5
			c38.5-28.7,75.1-64.6,109.1-106.7l2.9,20.8c0.5,3.6,3.6,6.3,7.2,6.3c0.3,0,0.7,0,1-0.1C414,91.4,416.8,87.8,416.2,83.8z"/>
	</g>
</g>
<g>
	<g>
		<path class="st0" d="M498.5,432.7h-59c4.9-3.2,9.4-7,13.6-11.2c16.6-16.6,25.8-38.7,25.8-62.2c0-23.5-9.2-45.6-25.8-62.2
			c-5.9-5.9-12.5-10.8-19.5-14.7V253c0-4-3.3-7.3-7.3-7.3c-4,0-7.3,3.3-7.3,7.3v23c-20-6.8-41.7-6.1-61.2,1.8v-89.6
			c0-0.9,0.8-1.7,1.7-1.7h57.8c0.9,0,1.7,0.8,1.7,1.7v18.1c0,4,3.3,7.3,7.3,7.3c4,0,7.3-3.3,7.3-7.3v-18.1c0-9-7.3-16.3-16.3-16.3
			h-57.8c-9,0-16.3,7.3-16.3,16.3v97.2c-5.2,3.3-10.1,7.2-14.6,11.8c-16.6,16.6-25.8,38.7-25.8,62.2c0,23.5,9.2,45.6,25.8,62.2
			c4.2,4.2,8.8,7.9,13.6,11.2h-46.1V254.4c0-9-7.3-16.3-16.3-16.3h-57.8c-9,0-16.3,7.3-16.3,16.3v178.4h-47V314.4
			c0-9-7.3-16.3-16.3-16.3H84.9c-9,0-16.3,7.3-16.3,16.3v118.4H38.5V57.4c0-7.4-6-13.5-13.5-13.5H13.5C6,43.9,0,50,0,57.4v51.8
			c0,4,3.3,7.3,7.3,7.3s7.3-3.3,7.3-7.3V58.5h9.3v375.3c0,7.4,6,13.5,13.5,13.5h460.1v11H14.6v-303c0-4-3.3-7.3-7.3-7.3
			S0,151.3,0,155.3v304.1c0,7.4,6,13.5,13.5,13.5h485.1c7.4,0,13.5-6,13.5-13.5v-13.2C512,438.8,506,432.7,498.5,432.7z
			 M144.3,432.7L144.3,432.7H83.1V314.4c0-0.9,0.8-1.7,1.7-1.7h57.8c0.9,0,1.7,0.8,1.7,1.7L144.3,432.7L144.3,432.7z M220.5,432.7
			V254.4c0-0.9,0.8-1.7,1.7-1.7H280c0.9,0,1.7,0.8,1.7,1.7v178.4L220.5,432.7L220.5,432.7z M423.2,425.3c-7.4,3.6-15.4,6-23.6,6.9
			c-0.1,0-0.3,0-0.4,0.1c-0.6,0.1-1.1,0.1-1.7,0.2c-0.9,0.1-1.7,0.1-2.6,0.2c-0.3,0-0.5,0-0.8,0c-1.1,0-2.1,0.1-3.2,0.1
			c-1.1,0-2.1,0-3.2-0.1c-0.3,0-0.7,0-1,0c-0.8,0-1.6-0.1-2.4-0.2c-0.7-0.1-1.3-0.1-2-0.2c-0.5-0.1-0.9-0.1-1.4-0.2
			c-0.7-0.1-1.3-0.2-2-0.3c-0.1,0-0.2,0-0.3,0c-8.6-1.4-16.9-4.4-24.5-8.8c0,0-0.1,0-0.1-0.1c-5.4-3.2-10.5-7-15.1-11.6
			c-13.9-13.9-21.5-32.3-21.5-51.9s7.6-38,21.5-51.9c5.3-5.3,11.2-9.6,17.5-13c0.2-0.1,0.4-0.2,0.5-0.3c10.6-5.5,22.2-8.2,33.8-8.2
			c9.3,0,18.6,1.8,27.3,5.3c0.2,0.1,0.3,0.1,0.5,0.2c0.9,0.4,1.8,0.8,2.7,1.2c0.4,0.2,0.7,0.3,1.1,0.5c7.4,3.5,14.3,8.3,20.3,14.4
			c28.6,28.6,28.6,75.2,0,103.8c-5.8,5.8-12.3,10.4-19.4,13.9C423.4,425.2,423.3,425.2,423.2,425.3z"/>
	</g>
</g>
<g>
	<g>
		<path class="st0" d="M394.4,352.3v-26c9,0.6,12.3,4.7,15.4,4.7c3.8,0,5.6-4.9,5.6-7.3c0-6.3-12.3-9-21-9.2v-3.5
			c0-1.5-1.9-2.9-3.8-2.9c-2.2,0-3.7,1.4-3.7,2.9v3.7c-12.2,1.3-24.3,7.7-24.3,23.8c0,16.4,12.8,21,24.3,25.1v30.1
			c-13.1-1-16.5-10-20.7-10c-3.2,0-5.9,4.2-5.9,7.3c0,6.3,10.8,14.9,26.6,15.1h0v4c0,1.5,1.5,2.9,3.7,2.9c1.9,0,3.8-1.4,3.8-2.9
			v-4.4c13.8-1.9,23.3-10.6,23.3-26.4C417.7,362,405.5,356.4,394.4,352.3z M387.6,349.9c-6.8-2.6-12.3-5.3-12.3-12.5
			c0-6.7,5.1-9.9,12.3-10.8V349.9z M393.6,393.5v-27c6.3,2.7,11.3,6.3,11.3,14.3C404.9,388.1,400.5,392.2,393.6,393.5z"/>
	</g>
</g>
</svg>
