<?xml version="1.0" encoding="utf-8"?>
<!-- Generator: Adobe Illustrator 24.1.3, SVG Export Plug-In . SVG Version: 6.00 Build 0)  -->
<svg version="1.1" baseProfile="tiny" id="Layer_1" xmlns="http://www.w3.org/2000/svg" xmlns:xlink="http://www.w3.org/1999/xlink"
	 x="0px" y="0px" viewBox="0 0 48 16" overflow="visible" xml:space="preserve">
<g>
	<g>
		<g>
			<path fill="#FFFFFF" d="M19.7,11.9c-1.7,0-3.2-1.4-3.2-3.2V5.1c0-0.4,0.4-0.8,0.8-0.8c0.5,0,0.8,0.4,0.8,0.8v3.6
				c0,0.9,0.7,1.5,1.5,1.5c0.9,0,1.6-0.7,1.6-1.5V5.1c0-0.4,0.3-0.8,0.8-0.8c0.4,0,0.8,0.4,0.8,0.8v3.6
				C22.9,10.4,21.4,11.9,19.7,11.9z"/>
			<path fill="#FFFFFF" d="M26.1,5.1V11c0,0.5-0.3,0.8-0.8,0.8c-0.5,0-0.8-0.4-0.8-0.8V5.1c0-0.5,0.4-0.8,0.8-0.8
				C25.7,4.3,26.1,4.6,26.1,5.1z"/>
			<path fill="#FFFFFF" d="M33.5,7.4v3.6c0,0.4-0.3,0.8-0.8,0.8c-0.4,0-0.8-0.4-0.8-0.8V7.4c0-0.8-0.7-1.5-1.6-1.5
				c-0.8,0-1.5,0.7-1.5,1.5v3.6c0,0,0,0.1,0,0.2c-0.1,0.4-0.4,0.7-0.8,0.7c-0.5,0-0.8-0.4-0.8-0.8V7.4V5.1c0-0.4,0.3-0.8,0.8-0.8
				c0.3,0,0.6,0.2,0.7,0.5c0.5-0.3,1-0.5,1.6-0.5C32.1,4.3,33.5,5.7,33.5,7.4z"/>
			<path fill="#FFFFFF" d="M34.4,8.1c0-2.1,1.6-3.8,3.7-3.8c2,0,3.5,1.5,3.7,3.5c0,0,0,0,0,0.1s0,0.1,0,0.1c0,0.4-0.4,0.6-0.8,0.6
				h-4.8c0.1,0.3,0.2,0.7,0.5,1c0.3,0.4,0.9,0.6,1.5,0.7c0.5,0,1.2-0.1,1.6-0.4c0.3-0.3,0.9-0.3,1.1,0c0.2,0.2,0.3,0.7,0,1
				c-0.7,0.7-1.6,1-2.7,1C36,11.8,34.4,10.1,34.4,8.1z M36.1,7.3h4.3c-0.2-0.6-0.9-1.5-2.2-1.6C36.8,5.8,36.2,6.7,36.1,7.3z"/>
			<path fill="#FFFFFF" d="M47,5.1c0,0.4-0.3,0.8-0.8,0.8c-0.3,0-0.7,0.1-0.9,0.3c-0.3,0.2-0.5,0.4-0.7,0.7C44.2,7.4,44,8,44,8.2
				v2.9c0,0.4-0.4,0.8-0.8,0.8c-0.4,0-0.8-0.4-0.8-0.8v-6c0-0.4,0.4-0.8,0.8-0.8c0.5,0,0.8,0.3,0.8,0.8v0.1c0.1-0.1,0.2-0.2,0.3-0.3
				c0.5-0.3,1.2-0.6,1.9-0.6C46.7,4.3,47,4.6,47,5.1z"/>
		</g>
	</g>
	<g>
		<path fill="#4481C2" d="M11.7,2.1V8c0,2.1-1.7,3.8-3.8,3.8c-1.7,0-3.1-1.1-3.6-2.6C4.1,8.7,4.4,8.2,4.8,8.1
			c0.5-0.2,0.9,0.1,1.1,0.5c0.3,0.8,1.1,1.5,2,1.5C9,10.1,10,9.1,10,8V1.3C9.3,1.1,8.6,1,7.9,1c-3.9,0-7,3.1-7,7s3.1,7,7,7
			s7-3.1,7-7C14.9,5.5,13.6,3.4,11.7,2.1z"/>
	</g>
	<circle fill="#FFFFFF" cx="25.3" cy="2.7" r="0.8"/>
</g>
</svg>
